<mxfile host="app.diagrams.net" modified="2024-07-10T13:29:27.427Z" agent="Mozilla/5.0 (Windows NT 10.0; Win64; x64) AppleWebKit/537.36 (KHTML, like Gecko) Chrome/126.0.0.0 Safari/537.36" version="24.6.4" etag="SM4kFb1KCfSx-9q5rSKE" type="github">
  <diagram name="Page-1" id="ropmhnqvFCrJrdX6Whr5">
    <mxGraphModel>
      <root>
        <mxCell id="0" />
        <mxCell id="1" parent="0" />
      </root>
    </mxGraphModel>
  </diagram>
</mxfile>
